<?xml version="1.0" encoding="UTF-8"?>
<svg id="Layer_2" data-name="Layer 2" xmlns="http://www.w3.org/2000/svg" viewBox="0 0 126.14 127.81">
  <circle cx="62.94" cy="63.53" r="61.82" fill="#abc1a6"/>
  <g>
    <path d="M55.29,51.4c-.09-.14.38-.89.43-1.05l.42-.88s12.71,22,10.51,49.16c-.02.23-.2.42-.43.46l-3.7.5c-.21.03-.37-.18-.29-.38,2.91-7.4,1.52-34.72-6.93-47.8Z" fill="#f2efe8"/>
    <path d="M62.47,100.08c-.24,0-.46-.11-.6-.3-.17-.22-.21-.51-.11-.77,2.88-7.31,1.47-34.41-6.89-47.34h0c-.22-.34-.02-.72.26-1.25.05-.1.1-.18.12-.23l.85-1.8.48.82c.13.22,12.76,22.45,10.57,49.45-.04.46-.4.85-.86.91l-3.7.5s-.07,0-.11,0ZM62.69,99.38h0,0ZM55.81,51.29c8.29,13.02,9.76,39.83,7.01,47.74l3.33-.45c1.92-23.72-7.72-43.71-9.98-48.02,0,.03-.06.13-.16.32-.05.1-.15.28-.2.4Z" fill="#f2efe8"/>
  </g>
  <g>
    <path d="M63.81,69.89s7.2-4.61,12.73-16.96c2.34-5.22.37.48.37.48,0,0-4,11.4-12.4,18.84" fill="#f2efe8"/>
    <path d="M64.84,72.63l-.66-.75c3.92-3.47,6.88-7.85,8.91-11.49-4.49,6.97-8.78,9.78-9.01,9.92l-.54-.84c.07-.05,7.15-4.7,12.55-16.74,1.07-2.38,1.23-2.67,1.77-2.46.48.19.55.35-.47,3.31-.04.12-4.14,11.61-12.55,19.05Z" fill="#f2efe8"/>
  </g>
  <g>
    <path d="M72.14,48.29s-6.48,1.26-5.97,5.09c.43,3.21,2.51,3.76,8.63,2.13,0,0-.32,6.58,3.57,7.41,3.89.83,3.35-7.33,3.35-7.33,0,0,3.81,7.22,6.89,5.56s-.17-7.31-2.55-8.69c0,0,8.08,1.04,6.83-3.46s-8.34-3.84-8.34-3.84c0,0,4.03-5.75,1.16-7.99-2.87-2.23-7.44,3.58-7.79,5.84,0,0-5.77-3.83-7.85-2.93s-2.94,4.47,2.06,8.21Z" fill="#f2efe8"/>
    <path d="M78.91,63.49c-.21,0-.42-.02-.64-.07-3.51-.75-3.94-5.46-3.97-7.25-3.76.95-5.85.98-7.14.12-.83-.55-1.3-1.45-1.48-2.84-.44-3.29,3.46-4.84,5.37-5.4-2.92-2.49-3.17-4.65-3.04-5.76.14-1.22.85-2.21,1.89-2.67,1.92-.83,6.14,1.6,7.74,2.6.69-1.92,2.95-4.85,5.26-5.77,1.18-.47,2.26-.36,3.14.32,2.53,1.97.51,6.08-.53,7.84,2.11-.02,6.83.41,7.88,4.25.3,1.09.15,2.01-.47,2.71-1.14,1.31-3.66,1.51-5.31,1.48,1.47,1.5,2.81,3.95,2.77,5.89-.02,1.2-.55,2.11-1.52,2.64-.63.34-1.32.4-2.06.18-1.81-.55-3.54-2.78-4.56-4.35-.07,1.77-.42,4.34-1.72,5.47-.46.4-1,.6-1.6.6ZM75.33,54.86l-.03.68c0,.06-.25,6.16,3.17,6.89.55.12,1,.02,1.38-.31,1.39-1.21,1.46-5.1,1.37-6.5l-.15-2.34,1.09,2.07s2.52,4.72,4.92,5.45c.48.14.9.11,1.29-.1.66-.36.98-.94,1-1.78.03-2.08-1.96-5.11-3.56-6.04l-2.13-1.24,2.44.31c1.29.17,4.87.3,6.03-1.04.38-.44.47-1.03.26-1.79-1.12-4.04-7.74-3.49-7.81-3.48l-1.07.1.62-.88c.04-.05,3.72-5.39,1.26-7.3-.59-.46-1.3-.52-2.15-.18-2.24.89-4.6,4.18-4.83,5.7l-.12.77-.65-.43c-2.15-1.42-6.05-3.47-7.37-2.89-.71.31-1.19,1-1.29,1.86-.2,1.7,1.06,3.7,3.45,5.48l.9.67-1.11.22c-.06.01-6.01,1.22-5.57,4.54.14,1.08.48,1.76,1.05,2.14,1.07.72,3.15.59,6.96-.42l.66-.17Z" fill="#f2efe8"/>
  </g>
  <g>
    <path d="M47.35,46.99s-1.97,6.88,1.97,8.26c3.3,1.16,4.85-.59,6.3-7.29,0,0,6.09,4.26,8.79.91,2.71-3.35-4.82-6.56-4.82-6.56,0,0,7.25-.64,7.16-4.43s-6.02-3.61-8.52-1.99c0,0,4.95-7.58.01-8.58-4.94-1-7.86,5.18-7.86,5.18,0,0-4.62-4.74-8.18-3.06s.11,7.68,2.11,9.12c0,0-7,2.66-7.16,5.11-.15,2.35,4.13,6.35,10.19,3.35Z" fill="#f2efe8"/>
    <path d="M51,56.09c-.55,0-1.16-.12-1.85-.36-3.41-1.2-2.92-5.8-2.52-7.87-3.88,1.53-6.59.19-7.63-.5-1.5-1-2.42-2.47-2.34-3.75.14-2.25,4.78-4.42,6.71-5.23-1.47-1.47-3.36-4.51-3.14-6.88.11-1.16.72-2.03,1.76-2.52,3.16-1.49,6.93,1.49,8.26,2.7.91-1.6,3.74-5.74,8.09-4.86,1.17.24,1.95.82,2.33,1.74.77,1.84-.37,4.58-1.23,6.22,1.87-.62,4.32-.71,5.98.17,1.17.62,1.8,1.63,1.83,2.92.07,3.04-3.77,4.25-6.02,4.7,1.52.84,3.74,2.34,4.19,4.14.22.87,0,1.71-.62,2.48-2.46,3.04-7.16.62-8.85-.41-.93,4.08-1.93,6.11-3.38,6.92-.47.27-.99.4-1.57.4ZM48.14,46.05l-.31,1.09c-.02.06-1.8,6.44,1.65,7.65,1.11.39,1.94.4,2.6.03,1.23-.69,2.14-2.77,3.04-6.96l.16-.74.62.43c.06.04,5.74,3.95,8.12,1,.42-.53.56-1.05.42-1.61-.46-1.85-3.8-3.64-5.05-4.18l-1.83-.78,1.98-.18c.07,0,6.78-.64,6.7-3.93-.02-.93-.46-1.62-1.29-2.06-1.79-.95-4.89-.53-6.45.48l-1.97,1.28,1.28-1.97c.8-1.23,2.71-4.83,1.94-6.67-.25-.6-.78-.98-1.61-1.15-4.48-.92-7.28,4.85-7.3,4.91l-.31.65-.5-.51s-4.42-4.46-7.61-2.96c-.73.34-1.12.9-1.19,1.71-.21,2.26,2.07,5.6,3.38,6.55l.75.54-.87.33c-2.59.99-6.74,3.13-6.83,4.67-.05.74.53,1.95,1.9,2.86.98.65,3.67,1.95,7.57.02l1.01-.5Z" fill="#f2efe8"/>
  </g>
  <g>
    <path d="M61.6,66.59s-14.18-8.97-17.45-8.28,1.66,2.74,1.66,2.74c0,0-7.05-1.04-7.22.41s7.17,2.38,7.17,2.38c0,0-4.69,2.93-2.91,3.39s12.9-1.11,19.02.79" fill="#f2efe8"/>
    <path d="M61.72,68.49c-4-1.25-10.33-.97-14.52-.78-2.3.1-3.81.17-4.47,0-.59-.15-.74-.53-.77-.74-.13-.81,1.18-1.95,2.43-2.82-2.87-.45-6.46-1.3-6.29-2.75.02-.19.11-.45.41-.68.8-.61,3.03-.59,4.86-.45-.52-.41-.87-.86-.83-1.33.08-.82,1.16-1.04,1.51-1.12,3.37-.71,16.35,7.42,17.82,8.35l-.54.85c-5.63-3.56-14.82-8.68-17.08-8.21-.62.13-.73.28-.73.28.08.25,1.26,1,2.49,1.51l3.68,1.54-3.95-.58c-3.22-.47-6.34-.48-6.66,0,.2.5,3.35,1.37,6.75,1.8l1.39.18-1.19.74c-1.45.91-2.78,2-3.04,2.47.68.13,2.3.06,4.17-.02,4.26-.19,10.69-.47,14.86.82l-.3.96Z" fill="#f2efe8"/>
  </g>
  <g>
    <path d="M65.59,81.95s8.66-17.15,11.16-16.45-.04,5.27-.04,5.27c0,0,5.94-7.08,8.38-4.96,2.44,2.12-5.07,7.14-5.07,7.14,0,0,3.27-1.42,3.63,0,.57,2.27-9.07,1.27-17.44,10.4" fill="#f2efe8"/>
    <path d="M66.58,83.69l-.74-.68c5.28-5.77,11.07-7.57,14.52-8.64,1.49-.46,2.9-.9,2.8-1.31-.02-.08-.06-.13-.14-.17-.52-.26-1.96.14-2.81.51l-.48-.88c1.45-.97,5.22-3.86,5.33-5.62.02-.3-.08-.53-.31-.73-.24-.21-.55-.3-.93-.27-2.11.17-5.58,3.79-6.74,5.17l-.82-.56c.42-.76,1.41-2.95.96-4.02-.11-.27-.31-.44-.63-.52-1.15-.34-5.99,7.1-10.58,16.19l-.89-.45c2.66-5.27,9.15-17.44,11.75-16.7.61.17,1.05.55,1.28,1.1.28.68.21,1.54,0,2.35,1.56-1.53,3.81-3.42,5.59-3.56.65-.06,1.21.12,1.66.51.47.41.69.94.66,1.55-.1,1.59-2.08,3.52-3.7,4.84.4-.02.79.02,1.1.18.34.17.57.45.67.82.33,1.32-1.18,1.79-3.47,2.51-3.36,1.04-8.98,2.79-14.08,8.36Z" fill="#f2efe8"/>
  </g>
  <g>
    <path d="M63.73,85.48s-10.46-12.84-14.32-10.72,2.14,4.63,2.14,4.63c0,0-11.12-3.59-10.57-.68.55,2.9,11.6,4.83,11.6,4.83,0,0-5.42.51-3.35,1.78s12.4.32,14.21,1.48" fill="#f2efe8"/>
    <path d="M63.15,87.22c-.77-.49-3.84-.56-6.55-.62-3.33-.07-6.47-.14-7.64-.86-.69-.42-.75-.86-.69-1.16.11-.49.75-.84,1.58-1.09-3.51-.8-8.93-2.39-9.37-4.7-.09-.48.04-.92.38-1.21,1.11-.98,4.74-.33,7.54.38-.45-.46-.77-.98-.8-1.54-.04-.81.48-1.51,1.55-2.1,4.1-2.25,13.85,9.5,14.95,10.84l-.78.63c-3.94-4.84-11.16-12-13.69-10.6-.49.27-1.06.69-1.03,1.17.05.96,2.13,2.14,3.13,2.56l-.35.94c-3.53-1.14-8.92-2.36-9.86-1.53-.04.04-.1.09-.06.28.35,1.87,7.05,3.71,11.19,4.43l3.67.64-3.71.35c-1.45.14-2.89.47-3.3.74.04.03.09.07.16.11.94.58,4.23.65,7.14.71,3.78.08,6.14.17,7.07.78l-.54.84Z" fill="#f2efe8"/>
  </g>
</svg>