<svg width="25" height="25" viewBox="0 0 25 25" fill="none" xmlns="http://www.w3.org/2000/svg">
<path d="M18.2291 6.77081H18.2395M7.29159 2.08331H17.7083C20.5847 2.08331 22.9166 4.41516 22.9166 7.29165V17.7083C22.9166 20.5848 20.5847 22.9166 17.7083 22.9166H7.29159C4.4151 22.9166 2.08325 20.5848 2.08325 17.7083V7.29165C2.08325 4.41516 4.4151 2.08331 7.29159 2.08331ZM16.6666 11.8437C16.7951 12.7107 16.6471 13.596 16.2434 14.374C15.8398 15.1519 15.2011 15.7827 14.4183 16.1767C13.6354 16.5707 12.7483 16.7079 11.883 16.5687C11.0178 16.4294 10.2184 16.0209 9.59871 15.4012C8.979 14.7815 8.57047 13.9821 8.43124 13.1169C8.292 12.2516 8.42915 11.3645 8.82318 10.5816C9.2172 9.79879 9.84803 9.16013 10.6259 8.75648C11.4039 8.35284 12.2892 8.20476 13.1562 8.33331C14.0405 8.46444 14.8591 8.8765 15.4913 9.50863C16.1234 10.1408 16.5355 10.9594 16.6666 11.8437Z" stroke="#F2EFE8" stroke-width="2" stroke-linecap="round" stroke-linejoin="round"/>
</svg>
