<svg width="25" height="25" viewBox="0 0 25 25" fill="none" xmlns="http://www.w3.org/2000/svg">
<path d="M15.6772 5.20835C16.6946 5.40686 17.6296 5.90446 18.3626 6.63745C19.0956 7.37045 19.5932 8.30551 19.7917 9.32294M15.6772 1.04169C17.791 1.27652 19.7621 2.22312 21.267 3.72607C22.7718 5.22902 23.7209 7.19899 23.9584 9.31252M22.9167 17.625V20.75C22.9179 21.0401 22.8585 21.3273 22.7423 21.5931C22.626 21.8589 22.4556 22.0975 22.2418 22.2936C22.028 22.4898 21.7757 22.6391 21.5009 22.732C21.226 22.8249 20.9348 22.8595 20.6459 22.8334C17.4405 22.4851 14.3615 21.3898 11.6563 19.6354C9.13948 18.0361 7.00563 15.9023 5.40632 13.3854C3.64588 10.6679 2.55033 7.57397 2.20841 4.35419C2.18238 4.06613 2.21661 3.77581 2.30893 3.50171C2.40125 3.22761 2.54963 2.97574 2.74462 2.76213C2.93962 2.54851 3.17695 2.37784 3.44152 2.26098C3.70609 2.14412 3.99209 2.08363 4.28132 2.08335H7.40632C7.91185 2.07838 8.40194 2.25739 8.78524 2.58703C9.16854 2.91667 9.4189 3.37444 9.48966 3.87502C9.62155 4.87509 9.86617 5.85703 10.2188 6.8021C10.359 7.17494 10.3893 7.58014 10.3062 7.96969C10.2231 8.35924 10.0301 8.7168 9.75007 9.00002L8.42716 10.3229C9.91003 12.9308 12.0693 15.0901 14.6772 16.5729L16.0001 15.25C16.2833 14.97 16.6409 14.7769 17.0304 14.6939C17.42 14.6108 17.8252 14.6411 18.198 14.7813C19.1431 15.1339 20.125 15.3785 21.1251 15.5104C21.6311 15.5818 22.0932 15.8367 22.4235 16.2266C22.7539 16.6165 22.9294 17.1142 22.9167 17.625Z" stroke="#F2EFE8" stroke-width="2" stroke-linecap="round" stroke-linejoin="round"/>
</svg>
