<svg width="112" height="121" viewBox="0 0 112 121" fill="none" xmlns="http://www.w3.org/2000/svg">
<rect width="112" height="121" fill="white"/>
<circle cx="56" cy="63" r="56" fill="#ABC1A6"/>
<path d="M49.1442 54.0834C49.0542 53.941 49.5242 53.1785 49.5742 53.0158L49.9942 52.121C49.9942 52.121 62.7042 74.4907 60.5042 102.107C60.4842 102.341 60.3042 102.534 60.0742 102.575L56.3742 103.083C56.1642 103.114 56.0042 102.9 56.0842 102.697C58.9942 95.1726 57.6042 67.3934 49.1542 54.0936L49.1442 54.0834Z" fill="white" stroke="white" stroke-miterlimit="10"/>
<path d="M57.6743 72.8943C57.6743 72.8943 64.8744 68.2069 70.4044 55.6493C72.7444 50.3416 70.7744 56.1374 70.7744 56.1374C70.7744 56.1374 66.7743 67.7289 58.3743 75.294" fill="white"/>
<path d="M57.6743 72.8943C57.6743 72.8943 64.8744 68.2069 70.4044 55.6493C72.7444 50.3416 70.7744 56.1374 70.7744 56.1374C70.7744 56.1374 66.7743 67.7289 58.3743 75.294" stroke="white" stroke-miterlimit="10"/>
<path d="M66.0044 50.9313C66.0044 50.9313 59.5245 52.2125 60.0345 56.1068C60.4645 59.3708 62.5444 59.93 68.6644 58.2726C68.6644 58.2726 68.3444 64.9632 72.2344 65.8072C76.1244 66.6511 75.5844 58.354 75.5844 58.354C75.5844 58.354 79.3944 65.6953 82.4744 64.0074C85.5544 62.3195 82.3044 56.5746 79.9244 55.1714C79.9244 55.1714 88.0044 56.2288 86.7544 51.6532C85.5144 47.0776 78.4144 47.7487 78.4144 47.7487C78.4144 47.7487 82.4444 41.9021 79.5744 39.6244C76.7044 37.3468 72.1345 43.2646 71.7845 45.5626C71.7845 45.5626 66.0144 41.6682 63.9344 42.5833C61.8544 43.4984 60.9944 47.1284 65.9944 50.9313H66.0044Z" fill="white" stroke="white" stroke-miterlimit="10"/>
<path d="M41.2043 49.6095C41.2043 49.6095 39.2343 56.6051 43.1743 58.0083C46.4743 59.1878 48.0243 57.4084 49.4743 50.5958C49.4743 50.5958 55.5643 54.9274 58.2643 51.5211C60.9643 48.1148 53.4443 44.8508 53.4443 44.8508C53.4443 44.8508 60.6943 44.2001 60.6043 40.3464C60.5143 36.4927 54.5843 36.6757 52.0843 38.3229C52.0843 38.3229 57.0344 30.6155 52.0944 29.5987C47.1544 28.5819 44.2343 34.8658 44.2343 34.8658C44.2343 34.8658 39.6143 30.0461 36.0543 31.7544C32.4943 33.4626 36.1643 39.5634 38.1643 41.0276C38.1643 41.0276 31.1643 43.7323 31.0043 46.2235C30.8443 48.7147 35.1343 52.6802 41.1943 49.6298L41.2043 49.6095Z" fill="white" stroke="white" stroke-miterlimit="10"/>
<path d="M55.4646 69.5287C55.4646 69.5287 41.2846 60.4079 38.0146 61.1095C34.7446 61.8111 39.6746 63.8956 39.6746 63.8956C39.6746 63.8956 32.6246 62.8381 32.4546 64.3125C32.2846 65.7868 39.6246 66.7325 39.6246 66.7325C39.6246 66.7325 34.9345 69.7117 36.7145 70.1794C38.4945 70.6472 49.6145 69.0508 55.7345 70.9827" fill="white"/>
<path d="M55.4646 69.5287C55.4646 69.5287 41.2846 60.4079 38.0146 61.1095C34.7446 61.8111 39.6746 63.8956 39.6746 63.8956C39.6746 63.8956 32.6246 62.8381 32.4546 64.3125C32.2846 65.7868 39.6246 66.7325 39.6246 66.7325C39.6246 66.7325 34.9345 69.7117 36.7145 70.1794C38.4945 70.6472 49.6145 69.0508 55.7345 70.9827" stroke="white" stroke-miterlimit="10"/>
<path d="M59.4443 85.157C59.4443 85.157 68.1043 67.7188 70.6043 68.4306C73.1043 69.1423 70.5643 73.7892 70.5643 73.7892C70.5643 73.7892 76.5043 66.5902 78.9443 68.7458C81.3843 70.9014 73.8743 76.0058 73.8743 76.0058C73.8743 76.0058 77.1443 74.5619 77.5043 76.0058C78.0743 78.3139 68.4343 77.2971 60.0643 86.5806" fill="white"/>
<path d="M59.4443 85.157C59.4443 85.157 68.1043 67.7188 70.6043 68.4306C73.1043 69.1423 70.5643 73.7892 70.5643 73.7892C70.5643 73.7892 76.5043 66.5902 78.9443 68.7458C81.3843 70.9014 73.8743 76.0058 73.8743 76.0058C73.8743 76.0058 77.1443 74.5619 77.5043 76.0058C78.0743 78.3139 68.4343 77.2971 60.0643 86.5806" stroke="white" stroke-miterlimit="10"/>
<path d="M57.5842 88.7362C57.5842 88.7362 47.1242 75.6804 43.2642 77.836C39.4042 79.9916 45.4042 82.5438 45.4042 82.5438C45.4042 82.5438 34.2842 78.8935 34.8342 81.8524C35.3842 84.8012 46.4342 86.7636 46.4342 86.7636C46.4342 86.7636 41.0142 87.2822 43.0842 88.5735C45.1542 89.8649 55.4842 88.8989 57.2942 90.0784" fill="white"/>
<path d="M57.5842 88.7362C57.5842 88.7362 47.1242 75.6804 43.2642 77.836C39.4042 79.9916 45.4042 82.5438 45.4042 82.5438C45.4042 82.5438 34.2842 78.8935 34.8342 81.8524C35.3842 84.8012 46.4342 86.7636 46.4342 86.7636C46.4342 86.7636 41.0142 87.2822 43.0842 88.5735C45.1542 89.8649 55.4842 88.8989 57.2942 90.0784" stroke="white" stroke-miterlimit="10"/>
</svg>
