<svg width="25" height="25" viewBox="0 0 25 25" fill="none" xmlns="http://www.w3.org/2000/svg">
<path d="M18.2291 6.77083H18.2396M7.29165 2.08333H17.7083C20.5848 2.08333 22.9166 4.41518 22.9166 7.29167V17.7083C22.9166 20.5848 20.5848 22.9167 17.7083 22.9167H7.29165C4.41516 22.9167 2.08331 20.5848 2.08331 17.7083V7.29167C2.08331 4.41518 4.41516 2.08333 7.29165 2.08333ZM16.6666 11.8437C16.7952 12.7107 16.6471 13.5961 16.2435 14.374C15.8398 15.1519 15.2012 15.7827 14.4183 16.1767C13.6355 16.5708 12.7484 16.7079 11.8831 16.5687C11.0178 16.4294 10.2185 16.0209 9.59877 15.4012C8.97906 14.7815 8.57053 13.9822 8.4313 13.1169C8.29207 12.2516 8.42921 11.3645 8.82324 10.5816C9.21726 9.7988 9.84809 9.16014 10.626 8.7565C11.4039 8.35285 12.2893 8.20478 13.1562 8.33333C14.0405 8.46446 14.8592 8.87652 15.4913 9.50865C16.1235 10.1408 16.5355 10.9595 16.6666 11.8437Z" stroke="#F2EFE8" stroke-width="2" stroke-linecap="round" stroke-linejoin="round"/>
</svg>
