<?xml version="1.0" encoding="UTF-8"?>
<svg id="Layer_2" data-name="Layer 2" xmlns="http://www.w3.org/2000/svg" viewBox="0 0 199.44 210.99">
  <circle cx="103.31" cy="104.78" r="87.2" fill="#abc1a6"/>
  <g>
    <path d="M96.48,96.27c-.09-.14.38-.89.43-1.05l.42-.88s12.71,22,10.51,49.16c-.02.23-.2.42-.43.46l-3.7.5c-.21.03-.37-.18-.29-.38,2.91-7.4,1.52-34.72-6.93-47.8Z" fill="#f2efe8"/>
    <path d="M103.67,144.95c-.24,0-.46-.11-.6-.3-.17-.22-.21-.51-.11-.77,2.88-7.31,1.47-34.41-6.89-47.34h0c-.22-.34-.02-.72.26-1.25.05-.1.1-.18.12-.23l.85-1.8.48.82c.13.22,12.76,22.45,10.57,49.45-.04.46-.4.85-.86.91l-3.7.5s-.07,0-.11,0ZM103.88,144.25h0,0ZM97.01,96.16c8.29,13.02,9.76,39.83,7.01,47.74l3.33-.45c1.92-23.72-7.72-43.71-9.98-48.02,0,.03-.06.13-.16.32-.05.1-.15.28-.2.4Z" fill="#f2efe8"/>
  </g>
  <g>
    <path d="M105.01,114.76s7.2-4.61,12.73-16.96c2.34-5.22.37.48.37.48,0,0-4,11.4-12.4,18.84" fill="#f2efe8"/>
    <path d="M106.04,117.5l-.66-.75c3.92-3.47,6.88-7.85,8.91-11.49-4.49,6.97-8.78,9.78-9.01,9.92l-.54-.84c.07-.05,7.15-4.7,12.55-16.74,1.07-2.38,1.23-2.67,1.77-2.46.48.19.55.35-.47,3.31-.04.12-4.14,11.61-12.55,19.05Z" fill="#f2efe8"/>
  </g>
  <g>
    <path d="M113.34,93.16s-6.48,1.26-5.97,5.09c.43,3.21,2.51,3.76,8.63,2.13,0,0-.32,6.58,3.57,7.41,3.89.83,3.35-7.33,3.35-7.33,0,0,3.81,7.22,6.89,5.56s-.17-7.31-2.55-8.69c0,0,8.08,1.04,6.83-3.46-1.24-4.5-8.34-3.84-8.34-3.84,0,0,4.03-5.75,1.16-7.99s-7.44,3.58-7.79,5.84c0,0-5.77-3.83-7.85-2.93s-2.94,4.47,2.06,8.21Z" fill="#f2efe8"/>
    <path d="M120.1,108.36c-.21,0-.42-.02-.64-.07-3.51-.75-3.94-5.46-3.97-7.25-3.76.95-5.85.98-7.14.12-.83-.55-1.3-1.45-1.48-2.84-.44-3.29,3.46-4.84,5.37-5.4-2.92-2.49-3.17-4.65-3.04-5.76.14-1.22.85-2.21,1.89-2.67,1.92-.83,6.14,1.6,7.74,2.6.69-1.92,2.95-4.85,5.26-5.77,1.18-.47,2.26-.36,3.14.32,2.53,1.97.51,6.08-.53,7.84,2.11-.02,6.83.41,7.88,4.25.3,1.09.15,2.01-.47,2.71-1.14,1.31-3.66,1.51-5.31,1.48,1.47,1.5,2.81,3.95,2.77,5.89-.02,1.2-.55,2.11-1.52,2.64-.63.34-1.32.4-2.06.18-1.81-.55-3.54-2.78-4.56-4.35-.07,1.77-.42,4.34-1.72,5.47-.46.4-1,.6-1.6.6ZM116.53,99.73l-.03.68c0,.06-.25,6.16,3.17,6.89.55.12,1,.02,1.38-.31,1.39-1.21,1.46-5.1,1.37-6.5l-.15-2.34,1.09,2.07s2.52,4.72,4.92,5.45c.48.14.9.11,1.29-.1.66-.36.98-.94,1-1.78.03-2.08-1.96-5.11-3.56-6.04l-2.13-1.24,2.44.31c1.29.17,4.87.3,6.03-1.04.38-.44.47-1.03.26-1.79-1.12-4.04-7.74-3.49-7.81-3.48l-1.07.1.62-.88c.04-.05,3.72-5.39,1.26-7.3-.59-.46-1.3-.52-2.15-.18-2.24.89-4.6,4.18-4.83,5.7l-.12.77-.65-.43c-2.15-1.42-6.05-3.47-7.37-2.89-.71.31-1.19,1-1.29,1.86-.2,1.7,1.06,3.7,3.45,5.48l.9.67-1.11.22c-.06.01-6.01,1.22-5.57,4.54.14,1.08.48,1.76,1.05,2.14,1.07.72,3.15.59,6.96-.42l.66-.17Z" fill="#f2efe8"/>
  </g>
  <g>
    <path d="M88.54,91.86s-1.97,6.88,1.97,8.26c3.3,1.16,4.85-.59,6.3-7.29,0,0,6.09,4.26,8.79.91s-4.82-6.56-4.82-6.56c0,0,7.25-.64,7.16-4.43s-6.02-3.61-8.52-1.99c0,0,4.95-7.58.01-8.58-4.94-1-7.86,5.18-7.86,5.18,0,0-4.62-4.74-8.18-3.06-3.56,1.67.11,7.68,2.11,9.12,0,0-7,2.66-7.16,5.11-.15,2.35,4.13,6.35,10.19,3.35Z" fill="#f2efe8"/>
    <path d="M92.19,100.96c-.55,0-1.16-.12-1.85-.36-3.41-1.2-2.92-5.8-2.52-7.87-3.88,1.53-6.59.19-7.63-.5-1.5-1-2.42-2.47-2.34-3.75.14-2.25,4.78-4.42,6.71-5.23-1.47-1.47-3.36-4.51-3.14-6.88.11-1.16.72-2.03,1.76-2.52,3.16-1.49,6.93,1.49,8.26,2.7.91-1.6,3.74-5.74,8.09-4.86,1.17.24,1.95.82,2.33,1.74.77,1.84-.37,4.58-1.23,6.22,1.87-.62,4.32-.71,5.98.17,1.17.62,1.8,1.63,1.83,2.92.07,3.04-3.77,4.25-6.02,4.7,1.52.84,3.74,2.34,4.19,4.14.22.87,0,1.71-.62,2.48-2.46,3.04-7.16.62-8.85-.41-.93,4.08-1.93,6.11-3.38,6.92-.47.27-.99.4-1.57.4ZM89.33,90.92l-.31,1.09c-.02.06-1.8,6.44,1.65,7.65,1.11.39,1.94.4,2.6.03,1.23-.69,2.14-2.77,3.04-6.96l.16-.74.62.43c.06.04,5.74,3.95,8.12,1,.42-.53.56-1.05.42-1.61-.46-1.85-3.8-3.64-5.05-4.18l-1.83-.78,1.98-.18c.07,0,6.78-.64,6.7-3.93-.02-.93-.46-1.62-1.29-2.06-1.79-.95-4.89-.53-6.45.48l-1.97,1.28,1.28-1.97c.8-1.23,2.71-4.83,1.94-6.67-.25-.6-.78-.98-1.61-1.15-4.48-.92-7.28,4.85-7.3,4.91l-.31.65-.5-.51s-4.42-4.46-7.61-2.96c-.73.34-1.12.9-1.19,1.71-.21,2.26,2.07,5.6,3.38,6.55l.75.54-.87.33c-2.59.99-6.74,3.13-6.83,4.67-.05.74.53,1.95,1.9,2.86.98.65,3.67,1.95,7.57.02l1.01-.5Z" fill="#f2efe8"/>
  </g>
  <g>
    <path d="M102.8,111.46s-14.18-8.97-17.45-8.28,1.66,2.74,1.66,2.74c0,0-7.05-1.04-7.22.41s7.17,2.38,7.17,2.38c0,0-4.69,2.93-2.91,3.39s12.9-1.11,19.02.79" fill="#f2efe8"/>
    <path d="M102.92,113.36c-4-1.25-10.33-.97-14.52-.78-2.3.1-3.81.17-4.47,0-.59-.15-.74-.53-.77-.74-.13-.81,1.18-1.95,2.43-2.82-2.87-.45-6.46-1.3-6.29-2.75.02-.19.11-.45.41-.68.8-.61,3.03-.59,4.86-.45-.52-.41-.87-.86-.83-1.33.08-.82,1.16-1.04,1.51-1.12,3.37-.71,16.35,7.42,17.82,8.35l-.54.85c-5.63-3.56-14.82-8.68-17.08-8.21-.62.13-.73.28-.73.28.08.25,1.26,1,2.49,1.51l3.68,1.54-3.95-.58c-3.22-.47-6.34-.48-6.66,0,.2.5,3.35,1.37,6.75,1.8l1.39.18-1.19.74c-1.45.91-2.78,2-3.04,2.47.68.13,2.3.06,4.17-.02,4.26-.19,10.69-.47,14.86.82l-.3.96Z" fill="#f2efe8"/>
  </g>
  <g>
    <path d="M106.78,126.82s8.66-17.15,11.16-16.45-.04,5.27-.04,5.27c0,0,5.94-7.08,8.38-4.96s-5.07,7.14-5.07,7.14c0,0,3.27-1.42,3.63,0,.57,2.27-9.07,1.27-17.44,10.4" fill="#f2efe8"/>
    <path d="M107.78,128.56l-.74-.68c5.28-5.77,11.07-7.57,14.52-8.64,1.49-.46,2.9-.9,2.8-1.31-.02-.08-.06-.13-.14-.17-.52-.26-1.96.14-2.81.51l-.48-.88c1.45-.97,5.22-3.86,5.33-5.62.02-.3-.08-.53-.31-.73-.24-.21-.55-.3-.93-.27-2.11.17-5.58,3.79-6.74,5.17l-.82-.56c.42-.76,1.41-2.95.96-4.02-.11-.27-.31-.44-.63-.52-1.15-.34-5.99,7.1-10.58,16.19l-.89-.45c2.66-5.27,9.15-17.44,11.75-16.7.61.17,1.05.55,1.28,1.1.28.68.21,1.54,0,2.35,1.56-1.53,3.81-3.42,5.59-3.56.65-.06,1.21.12,1.66.51.47.41.69.94.66,1.55-.1,1.59-2.08,3.52-3.7,4.84.4-.02.79.02,1.1.18.34.17.57.45.67.82.33,1.32-1.18,1.79-3.47,2.51-3.36,1.04-8.98,2.79-14.08,8.36Z" fill="#f2efe8"/>
  </g>
  <g>
    <path d="M104.92,130.35s-10.46-12.84-14.32-10.72c-3.86,2.12,2.14,4.63,2.14,4.63,0,0-11.12-3.59-10.57-.68.55,2.9,11.6,4.83,11.6,4.83,0,0-5.42.51-3.35,1.78,2.06,1.27,12.4.32,14.21,1.48" fill="#f2efe8"/>
    <path d="M104.35,132.08c-.77-.49-3.84-.56-6.55-.62-3.33-.07-6.47-.14-7.64-.86-.69-.42-.75-.86-.69-1.16.11-.49.75-.84,1.58-1.09-3.51-.8-8.93-2.39-9.37-4.7-.09-.48.04-.92.38-1.21,1.11-.98,4.74-.33,7.54.38-.45-.46-.77-.98-.8-1.54-.04-.81.48-1.51,1.55-2.1,4.1-2.25,13.85,9.5,14.95,10.84l-.78.63c-3.94-4.84-11.16-12-13.69-10.6-.49.27-1.06.69-1.03,1.17.05.96,2.13,2.14,3.13,2.56l-.35.94c-3.53-1.14-8.92-2.36-9.86-1.53-.04.04-.1.09-.06.28.35,1.87,7.05,3.71,11.19,4.43l3.67.64-3.71.35c-1.45.14-2.89.47-3.3.74.04.03.09.07.16.11.94.58,4.23.65,7.14.71,3.78.08,6.14.17,7.07.78l-.54.84Z" fill="#f2efe8"/>
  </g>
  <g>
    <path d="M42.04,141.06c-.54-.95-.88-1.92-1.02-2.93-.14-1.01-.11-1.99.09-2.93l-1.66.94-1.3-2.29,20.12-11.45,1.41,2.47-9.03,5.14c.86.32,1.67.79,2.41,1.41.75.63,1.37,1.39,1.89,2.29.54.95.88,1.93,1.01,2.94.13,1.01.08,2.01-.15,2.98-.23.97-.64,1.85-1.21,2.65-.58.79-1.31,1.44-2.21,1.95-.89.51-1.83.81-2.8.9-.97.09-1.94-.01-2.89-.31s-1.83-.76-2.64-1.39c-.8-.63-1.48-1.42-2.01-2.37ZM43.92,139.57c.5.87,1.14,1.55,1.95,2.03.8.48,1.65.74,2.56.79.9.04,1.76-.17,2.57-.63.81-.46,1.43-1.09,1.85-1.89.42-.8.63-1.66.63-2.6,0-.94-.26-1.84-.75-2.71s-1.14-1.54-1.95-2.03-1.66-.75-2.56-.79c-.9-.04-1.76.17-2.57.63-.81.46-1.43,1.09-1.85,1.89-.42.8-.63,1.66-.63,2.6,0,.94.26,1.84.75,2.71Z" fill="#f2efe8"/>
    <path d="M51.92,153.58l16.08-16.65,2.05,1.98-16.08,16.65-2.05-1.98Z" fill="#f2efe8"/>
    <path d="M66.75,165.17c-1.01-.57-1.86-1.26-2.54-2.09-.68-.83-1.19-1.73-1.52-2.7-.33-.98-.46-1.97-.39-2.97.07-1,.36-1.96.87-2.87.51-.91,1.18-1.66,2-2.24.82-.58,1.73-.99,2.74-1.21,1-.23,2.04-.27,3.1-.11,1.06.15,2.1.51,3.11,1.08,1.01.57,1.86,1.26,2.54,2.09.68.83,1.19,1.73,1.52,2.71.33.98.46,1.97.39,2.97-.07,1-.36,1.96-.87,2.87-.51.91-1.18,1.66-2,2.24-.82.58-1.73.99-2.74,1.21s-2.04.27-3.1.11c-1.06-.15-2.1-.51-3.11-1.08ZM67.96,163.02c.89.5,1.8.75,2.75.75.94,0,1.82-.21,2.62-.63.8-.43,1.43-1.04,1.89-1.86.46-.81.66-1.67.6-2.58-.05-.91-.33-1.76-.83-2.56s-1.19-1.45-2.07-1.95c-.89-.5-1.8-.75-2.75-.75-.94,0-1.82.21-2.62.63-.8.42-1.43,1.04-1.89,1.86-.46.81-.66,1.67-.6,2.58.06.91.33,1.76.83,2.56.5.8,1.19,1.46,2.07,1.95Z" fill="#f2efe8"/>
    <path d="M83.59,172.71l1.43-14.4,2.62.26-.2,2.06c.65-.73,1.44-1.24,2.36-1.55.92-.3,1.87-.41,2.85-.31,1.07.11,2.02.43,2.87.98.84.54,1.5,1.25,1.96,2.12.7-.8,1.55-1.37,2.56-1.71,1.01-.34,2.06-.45,3.14-.34,1.19.12,2.25.48,3.19,1.09.94.61,1.65,1.4,2.14,2.38.49.98.68,2.09.56,3.34l-.84,8.52-2.83-.28.81-8.21c.13-1.31-.18-2.35-.92-3.11-.75-.76-1.65-1.19-2.72-1.3-.66-.07-1.32,0-1.97.22-.65.21-1.2.58-1.65,1.12-.45.54-.72,1.27-.81,2.2l-.82,8.28-2.83-.28.81-8.21c.09-.91-.03-1.68-.37-2.31-.33-.63-.8-1.12-1.39-1.48-.59-.36-1.22-.57-1.88-.64-.65-.06-1.29,0-1.94.22-.65.21-1.2.58-1.66,1.12-.46.54-.74,1.28-.83,2.22l-.82,8.28-2.83-.28Z" fill="#f2efe8"/>
    <path d="M121.56,172.45c-.79.18-1.66.23-2.62.15-.96-.07-1.84-.36-2.63-.86l.15-2.95c.64.63,1.39,1.08,2.24,1.34.85.26,1.7.3,2.56.11.82-.18,1.4-.51,1.73-.97.33-.46.43-.96.32-1.49-.14-.61-.45-1.01-.96-1.19-.5-.18-.93-.29-1.3-.33l-2.24-.26c-.41-.06-.91-.16-1.5-.32-.59-.16-1.14-.45-1.65-.88-.51-.43-.86-1.06-1.04-1.89-.17-.75-.13-1.49.13-2.2.25-.72.7-1.34,1.34-1.87.64-.53,1.45-.9,2.42-1.12.77-.17,1.6-.23,2.5-.16.89.06,1.7.33,2.42.79l-.15,2.95c-.38-.39-.81-.71-1.29-.96-.49-.25-.99-.41-1.51-.49-.52-.08-1.04-.07-1.55.05-.7.16-1.22.46-1.54.91-.32.45-.43.91-.33,1.38.08.38.3.68.64.92.34.24.81.39,1.4.45l2.25.27c.4.04.92.14,1.54.3.62.16,1.2.46,1.75.89.55.44.92,1.11,1.12,2.02.19.85.13,1.64-.17,2.37s-.8,1.37-1.48,1.9c-.68.53-1.52.91-2.51,1.13Z" fill="#f2efe8"/>
    <path d="M134.98,167.72l-5.11-11.18-3.26,1.49-.9-1.97,3.33-1.52-2-4.39,2.44-1.12,2.01,4.39,3.57-1.63.9,1.97-3.5,1.6,5.11,11.18-2.59,1.18Z" fill="#f2efe8"/>
    <path d="M152.36,157.65c-.98.77-2.01,1.32-3.08,1.65-1.07.34-2.13.47-3.16.4-1.03-.07-2.01-.34-2.92-.81-.91-.47-1.7-1.13-2.36-1.98-.63-.81-1.06-1.7-1.28-2.65-.22-.96-.25-1.93-.08-2.91.17-.99.52-1.93,1.05-2.82.54-.9,1.24-1.69,2.11-2.36,1.15-.89,2.4-1.46,3.74-1.71,1.35-.24,2.63-.16,3.86.25,1.23.41,2.26,1.15,3.1,2.23l.65.84-8.14,6.34c-.36.28-.74.55-1.13.82-.39.27-.79.51-1.19.74.62.6,1.35,1,2.2,1.22.85.22,1.72.23,2.61.03.89-.2,1.73-.6,2.52-1.22.79-.61,1.4-1.35,1.82-2.21s.63-1.72.62-2.59l2.44,1.85c-.25.91-.66,1.79-1.24,2.63-.58.85-1.29,1.6-2.15,2.27ZM142.39,154.31c.33-.35.67-.69,1.03-1.01.36-.32.73-.63,1.1-.92l4.13-3.22c.3-.24.61-.46.93-.67.31-.21.63-.42.96-.64-.59-.5-1.26-.82-2.02-.96-.76-.15-1.52-.13-2.3.05-.78.18-1.5.52-2.16,1.04-.68.53-1.2,1.16-1.55,1.89-.35.73-.54,1.48-.56,2.26s.12,1.5.44,2.19Z" fill="#f2efe8"/>
    <path d="M163.7,146.56l-12.04-8.03,1.46-2.19,1.95,1.3c-.39-.95-.51-1.94-.38-2.96.14-1.02.5-1.97,1.1-2.86.62-.93,1.41-1.66,2.36-2.17.95-.51,1.99-.75,3.12-.72s2.26.43,3.4,1.19l6.92,4.62-1.58,2.37-6.62-4.42c-.95-.63-1.99-.88-3.14-.75-1.14.13-2.09.76-2.84,1.89-.41.61-.66,1.28-.74,2-.09.72.02,1.43.32,2.11.3.68.83,1.28,1.61,1.8l6.68,4.46-1.58,2.37Z" fill="#f2efe8"/>
  </g>
  <g>
    <path d="M68.22,65.28c-1.09.88-2.27,1.51-3.54,1.88-1.27.37-2.55.49-3.84.36-1.29-.13-2.52-.49-3.67-1.09-1.15-.6-2.16-1.44-3.02-2.5-.86-1.06-1.47-2.23-1.82-3.48-.35-1.26-.45-2.53-.3-3.82.14-1.29.53-2.52,1.15-3.69.62-1.17,1.48-2.19,2.57-3.08,1.07-.87,2.23-1.48,3.48-1.85,1.25-.37,2.51-.5,3.77-.4l1.29,2.72c-1.17-.4-2.39-.49-3.64-.28-1.26.21-2.41.74-3.46,1.59-.83.67-1.47,1.44-1.93,2.33-.46.89-.74,1.82-.83,2.79-.09.98,0,1.94.28,2.9.28.96.75,1.85,1.42,2.67.65.8,1.41,1.44,2.29,1.92.88.48,1.8.77,2.78.88.97.11,1.94.04,2.9-.22s1.86-.73,2.69-1.41c.62-.51,1.16-1.06,1.6-1.67.44-.6.78-1.23,1.03-1.89l-3.15-3.89-4.14,3.36-1.36-1.68,5.98-4.85,5.29,6.52c-.22,1.11-.67,2.17-1.34,3.18-.67,1.01-1.49,1.9-2.46,2.69Z" fill="#f2efe8"/>
    <path d="M86.49,55.45c-.85.26-1.69.34-2.53.25-.84-.1-1.63-.34-2.38-.74-.74-.4-1.39-.92-1.94-1.58s-.95-1.41-1.22-2.28c-.27-.87-.36-1.72-.27-2.57.08-.85.32-1.65.72-2.39.39-.75.91-1.4,1.55-1.95.64-.55,1.38-.96,2.23-1.22.85-.26,1.69-.35,2.54-.27.84.08,1.62.31,2.34.7l-.49-1.6,2.05-.63,3.74,12.16-2.05.63-.49-1.6c-.38.71-.9,1.34-1.54,1.88-.65.55-1.4.95-2.25,1.21ZM86.16,53.37c.78-.24,1.43-.65,1.95-1.23.52-.58.87-1.25,1.04-2.01.18-.76.15-1.53-.09-2.31-.24-.78-.65-1.44-1.22-1.96-.57-.53-1.24-.88-1.99-1.07-.75-.19-1.52-.16-2.3.08-.78.24-1.43.65-1.95,1.23-.52.58-.87,1.25-1.05,2.01-.18.76-.15,1.53.09,2.31.24.78.65,1.44,1.22,1.96.57.53,1.24.88,2,1.07.75.19,1.52.16,2.3-.08Z" fill="#f2efe8"/>
    <path d="M107.18,52.67c-.89-.04-1.71-.25-2.47-.63-.76-.38-1.42-.88-1.98-1.51-.56-.63-.99-1.34-1.28-2.14s-.41-1.65-.37-2.56c.04-.9.25-1.74.62-2.51.37-.77.86-1.44,1.49-2.01.62-.57,1.33-1.01,2.12-1.31.79-.3,1.63-.43,2.51-.39s1.71.25,2.48.61c.76.36,1.42.85,1.96,1.46l.08-1.67,2.15.11-.63,12.71-2.15-.11.08-1.67c-.6.54-1.3.95-2.1,1.25-.8.29-1.64.42-2.52.37ZM107.58,50.61c.82.04,1.57-.12,2.25-.49.69-.37,1.24-.88,1.67-1.53.43-.65.66-1.39.7-2.21.04-.82-.12-1.57-.48-2.26-.36-.69-.86-1.25-1.51-1.69-.64-.44-1.38-.67-2.19-.71-.82-.04-1.57.12-2.25.49-.69.37-1.24.88-1.67,1.53-.43.65-.66,1.39-.7,2.2-.04.82.12,1.57.48,2.26.36.69.86,1.25,1.51,1.69.64.44,1.38.67,2.19.71Z" fill="#f2efe8"/>
    <path d="M122.7,55.12l4.36-11.95,2.02.74-.8,2.19c.69-.55,1.46-.9,2.33-1.06.87-.16,1.79-.06,2.78.3l-.24,2.35c-.12-.09-.25-.17-.4-.25-.15-.08-.3-.14-.44-.2-.75-.28-1.47-.36-2.15-.24-.68.11-1.29.42-1.82.92s-.96,1.19-1.28,2.06l-2.16,5.94-2.18-.8Z" fill="#f2efe8"/>
    <path d="M140.43,64.42c-.71-.54-1.26-1.18-1.68-1.92-.41-.74-.67-1.53-.78-2.37-.11-.84-.06-1.67.16-2.49.21-.82.59-1.6,1.14-2.32.55-.72,1.19-1.29,1.93-1.72.74-.42,1.52-.7,2.36-.81.84-.12,1.67-.08,2.49.12.82.2,1.58.57,2.29,1.11.67.51,1.21,1.11,1.63,1.8.41.69.69,1.41.83,2.18l5.54-7.27,1.85,1.41-12.33,16.19-1.71-1.3,1.01-1.33c-.8.1-1.61.05-2.43-.16-.82-.21-1.59-.58-2.29-1.12ZM141.92,62.95c.65.5,1.36.78,2.14.87.78.08,1.52-.02,2.24-.32.72-.29,1.33-.77,1.83-1.42.5-.65.79-1.36.89-2.14.09-.77,0-1.52-.29-2.25-.29-.72-.75-1.33-1.4-1.83-.65-.5-1.36-.78-2.14-.87-.77-.08-1.52.02-2.24.32-.72.3-1.33.77-1.83,1.42-.5.65-.79,1.37-.88,2.14-.09.77,0,1.52.29,2.25.29.72.76,1.33,1.4,1.83Z" fill="#f2efe8"/>
  </g>
  <circle cx="36.41" cy="96.83" r="2.84" fill="#f2efe8"/>
  <circle cx="171.86" cy="98.46" r="2.84" fill="#f2efe8"/>
</svg>