<?xml version="1.0" encoding="UTF-8"?>
<svg id="Layer_2" data-name="Layer 2" xmlns="http://www.w3.org/2000/svg" viewBox="0 0 195.44 197.58">
  <circle cx="101.09" cy="97.43" r="87.2" fill="#abc1a6"/>
  <path d="M94.26,88.91c-.09-.14.38-.89.43-1.05l.42-.88s12.71,22,10.51,49.16c-.02.23-.2.42-.43.46l-3.7.5c-.21.03-.37-.18-.29-.38,2.91-7.4,1.52-34.72-6.93-47.8Z" fill="#f2efe8" stroke="#f2efe8" stroke-miterlimit="10"/>
  <path d="M102.78,107.41s7.2-4.61,12.73-16.96c2.34-5.22.37.48.37.48,0,0-4,11.4-12.4,18.84" fill="#f2efe8" stroke="#f2efe8" stroke-miterlimit="10"/>
  <path d="M111.11,85.8s-6.48,1.26-5.97,5.09c.43,3.21,2.51,3.76,8.63,2.13,0,0-.32,6.58,3.57,7.41,3.89.83,3.35-7.33,3.35-7.33,0,0,3.81,7.22,6.89,5.56s-.17-7.31-2.55-8.69c0,0,8.08,1.04,6.83-3.46-1.24-4.5-8.34-3.84-8.34-3.84,0,0,4.03-5.75,1.16-7.99s-7.44,3.58-7.79,5.84c0,0-5.77-3.83-7.85-2.93s-2.94,4.47,2.06,8.21Z" fill="#f2efe8" stroke="#f2efe8" stroke-miterlimit="10"/>
  <path d="M86.32,84.51s-1.97,6.88,1.97,8.26c3.3,1.16,4.85-.59,6.3-7.29,0,0,6.09,4.26,8.79.91s-4.82-6.56-4.82-6.56c0,0,7.25-.64,7.16-4.43s-6.02-3.61-8.52-1.99c0,0,4.95-7.58.01-8.58-4.94-1-7.86,5.18-7.86,5.18,0,0-4.62-4.74-8.18-3.06-3.56,1.67.11,7.68,2.11,9.12,0,0-7,2.66-7.16,5.11-.15,2.35,4.13,6.35,10.19,3.35Z" fill="#f2efe8" stroke="#f2efe8" stroke-miterlimit="10"/>
  <path d="M100.57,104.1s-14.18-8.97-17.45-8.28,1.66,2.74,1.66,2.74c0,0-7.05-1.04-7.22.41s7.17,2.38,7.17,2.38c0,0-4.69,2.93-2.91,3.39s12.9-1.11,19.02.79" fill="#f2efe8" stroke="#f2efe8" stroke-miterlimit="10"/>
  <path d="M104.56,119.47s8.66-17.15,11.16-16.45-.04,5.27-.04,5.27c0,0,5.94-7.08,8.38-4.96s-5.07,7.14-5.07,7.14c0,0,3.27-1.42,3.63,0,.57,2.27-9.07,1.27-17.44,10.4" fill="#f2efe8" stroke="#f2efe8" stroke-miterlimit="10"/>
  <path d="M102.7,122.99s-10.46-12.84-14.32-10.72c-3.86,2.12,2.14,4.63,2.14,4.63,0,0-11.12-3.59-10.57-.68.55,2.9,11.6,4.83,11.6,4.83,0,0-5.42.51-3.35,1.78,2.06,1.27,12.4.32,14.21,1.48" fill="#f2efe8" stroke="#f2efe8" stroke-miterlimit="10"/>
  <text/>
  <text transform="translate(34.68 124.29) rotate(60.34) scale(1.09 1)" fill="#f2efe8" font-family="AfacadFlux-Regular, &apos;Afacad Flux&apos;" font-size="34.72" font-variation-settings="&apos;slnt&apos; 0, &apos;wght&apos; 400"><tspan x="0" y="0">b</tspan></text>
  <text transform="translate(47.87 144.47) rotate(43.99) scale(1.09 1)" fill="#f2efe8" font-family="AfacadFlux-Regular, &apos;Afacad Flux&apos;" font-size="34.72" font-variation-settings="&apos;slnt&apos; 0, &apos;wght&apos; 400"><tspan x="0" y="0">l</tspan></text>
  <text transform="translate(56.17 152.79) rotate(29.31) scale(1.09 1)" fill="#f2efe8" font-family="AfacadFlux-Regular, &apos;Afacad Flux&apos;" font-size="34.72" font-variation-settings="&apos;slnt&apos; 0, &apos;wght&apos; 400"><tspan x="0" y="0">o</tspan></text>
  <text transform="translate(78.85 165.1) rotate(5.66) scale(1.09 1)" fill="#f2efe8" font-family="AfacadFlux-Regular, &apos;Afacad Flux&apos;" font-size="34.72" font-variation-settings="&apos;slnt&apos; 0, &apos;wght&apos; 400"><tspan x="0" y="0">m</tspan></text>
  <text transform="translate(112.82 166.25) rotate(-12.58) scale(1.09 1)" fill="#f2efe8" font-family="AfacadFlux-Regular, &apos;Afacad Flux&apos;" font-size="34.72" font-variation-settings="&apos;slnt&apos; 0, &apos;wght&apos; 400"><tspan x="0" y="0">s</tspan></text>
  <text transform="translate(128.78 162.18) rotate(-24.58) scale(1.09 1)" fill="#f2efe8" font-family="AfacadFlux-Regular, &apos;Afacad Flux&apos;" font-size="34.72" font-variation-settings="&apos;slnt&apos; 0, &apos;wght&apos; 400"><tspan x="0" y="0">t</tspan></text>
  <text transform="translate(142.02 156.24) rotate(-37.9) scale(1.09 1)" fill="#f2efe8" font-family="AfacadFlux-Regular, &apos;Afacad Flux&apos;" font-size="34.72" font-variation-settings="&apos;slnt&apos; 0, &apos;wght&apos; 400"><tspan x="0" y="0">e</tspan></text>
  <text transform="translate(160.07 141.3) rotate(-56.29) scale(1.09 1)" fill="#f2efe8" font-family="AfacadFlux-Regular, &apos;Afacad Flux&apos;" font-size="34.72" font-variation-settings="&apos;slnt&apos; 0, &apos;wght&apos; 400"><tspan x="0" y="0">n</tspan></text>
  <text transform="translate(56.93 64.78) rotate(-39.04) scale(1.01 1)" fill="#f2efe8" font-family="AfacadFlux-Regular, &apos;Afacad Flux&apos;" font-size="30.53" font-variation-settings="&apos;slnt&apos; 0, &apos;wght&apos; 400"><tspan x="0" y="0">G</tspan></text>
  <text transform="translate(72.17 53.2) rotate(-27.23) scale(1.01 1)" fill="#f2efe8" font-family="AfacadFlux-Regular, &apos;Afacad Flux&apos;" font-size="30.53" font-variation-settings="&apos;slnt&apos; 0, &apos;wght&apos; 400"><tspan x="0" y="0"> </tspan></text>
  <text transform="translate(76.96 50.16) rotate(-17.11) scale(1.01 1)" fill="#f2efe8" font-family="AfacadFlux-Regular, &apos;Afacad Flux&apos;" font-size="30.53" font-variation-settings="&apos;slnt&apos; 0, &apos;wght&apos; 400"><tspan x="0" y="0">a</tspan></text>
  <text transform="translate(91.84 45.95) rotate(-7.06) scale(1.01 1)" fill="#f2efe8" font-family="AfacadFlux-Regular, &apos;Afacad Flux&apos;" font-size="30.53" font-variation-settings="&apos;slnt&apos; 0, &apos;wght&apos; 400"><tspan x="0" y="0"> </tspan></text>
  <text transform="translate(97.38 44.77) rotate(2.82) scale(1.01 1)" fill="#f2efe8" font-family="AfacadFlux-Regular, &apos;Afacad Flux&apos;" font-size="30.53" font-variation-settings="&apos;slnt&apos; 0, &apos;wght&apos; 400"><tspan x="0" y="0">a</tspan></text>
  <text transform="translate(112.81 45.88) rotate(12.87) scale(1.01 1)" fill="#f2efe8" font-family="AfacadFlux-Regular, &apos;Afacad Flux&apos;" font-size="30.53" font-variation-settings="&apos;slnt&apos; 0, &apos;wght&apos; 400"><tspan x="0" y="0"> </tspan></text>
  <text transform="translate(118.54 47.05) rotate(20.03) scale(1.01 1)" fill="#f2efe8" font-family="AfacadFlux-Regular, &apos;Afacad Flux&apos;" font-size="30.53" font-variation-settings="&apos;slnt&apos; 0, &apos;wght&apos; 400"><tspan x="0" y="0">r</tspan></text>
  <text transform="translate(127.03 50.21) rotate(27.19) scale(1.01 1)" fill="#f2efe8" font-family="AfacadFlux-Regular, &apos;Afacad Flux&apos;" font-size="30.53" font-variation-settings="&apos;slnt&apos; 0, &apos;wght&apos; 400"><tspan x="0" y="0"> </tspan></text>
  <text transform="translate(132.27 52.33) rotate(37.29) scale(1.01 1)" fill="#f2efe8" font-family="AfacadFlux-Regular, &apos;Afacad Flux&apos;" font-size="30.53" font-variation-settings="&apos;slnt&apos; 0, &apos;wght&apos; 400"><tspan x="0" y="0">d</tspan></text>
  <circle cx="34.18" cy="89.47" r="2.84" fill="#f2efe8"/>
  <circle cx="169.64" cy="91.1" r="2.84" fill="#f2efe8"/>
</svg>