<svg width="25" height="25" viewBox="0 0 25 25" fill="none" xmlns="http://www.w3.org/2000/svg">
<path d="M15.6771 5.20834C16.6945 5.40684 17.6296 5.90444 18.3626 6.63744C19.0956 7.37044 19.5932 8.30549 19.7917 9.32292M15.6771 1.04167C17.7909 1.2765 19.7621 2.2231 21.2669 3.72605C22.7718 5.22901 23.7209 7.19897 23.9583 9.31251M22.9167 17.625V20.75C22.9179 21.0401 22.8584 21.3273 22.7422 21.5931C22.626 21.8589 22.4555 22.0975 22.2418 22.2936C22.028 22.4897 21.7756 22.6391 21.5008 22.732C21.226 22.8249 20.9348 22.8595 20.6458 22.8333C17.4405 22.485 14.3615 21.3897 11.6563 19.6354C9.13942 18.0361 7.00557 15.9023 5.40626 13.3854C3.64582 10.6679 2.55026 7.57396 2.20835 4.35417C2.18231 4.06612 2.21655 3.7758 2.30887 3.5017C2.40118 3.2276 2.54956 2.97572 2.74456 2.76211C2.93955 2.5485 3.17689 2.37783 3.44146 2.26097C3.70603 2.1441 3.99203 2.08361 4.28126 2.08334H7.40626C7.91179 2.07836 8.40188 2.25738 8.78518 2.58702C9.16848 2.91666 9.41884 3.37443 9.48959 3.87501C9.62149 4.87507 9.86611 5.85701 10.2188 6.80209C10.3589 7.17493 10.3892 7.58013 10.3062 7.96967C10.2231 8.35922 10.0301 8.71679 9.75001 9.00001L8.4271 10.3229C9.90997 12.9308 12.0692 15.0901 14.6771 16.5729L16 15.25C16.2832 14.9699 16.6408 14.7769 17.0303 14.6939C17.4199 14.6108 17.8251 14.6411 18.1979 14.7813C19.143 15.1339 20.1249 15.3785 21.125 15.5104C21.631 15.5818 22.0931 15.8367 22.4235 16.2266C22.7538 16.6164 22.9294 17.1141 22.9167 17.625Z" stroke="#F2EFE8" stroke-width="2" stroke-linecap="round" stroke-linejoin="round"/>
</svg>
